<svg id="Layer_1" data-name="Layer 1" xmlns="http://www.w3.org/2000/svg" viewBox="0 0 185.81 367.31"><defs><style>.cls-1,.cls-2{fill:#fff;stroke:#fff;stroke-width:0.5px;}.cls-1{stroke-linejoin:round;}.cls-2{stroke-miterlimit:10;}</style></defs><title>Smilies-S-White-2022</title><path class="cls-1" d="M134.46,184.32c-38.57-3.56-67.3-33.85-64.18-67.64s36.92-58.3,75.49-54.73h0c-27.27-2.27-40.9,23.21-44.08,57.63-3.16,34.22-.52,61.74,32.77,64.74Z" transform="translate(-30.37 -19.54)"/><path class="cls-2" d="M133,184.18c38.57,3.56,72.36-20.94,75.49-54.73S182.87,65.38,144.3,61.81h0c27.23,2.76,36,30.31,32.77,64.74-3.16,34.22-10.8,60.79-44.08,57.63Z" transform="translate(-30.37 -19.54)"/><path class="cls-2" d="M177.62,35.17c1-6.56,7.79-16.83,21.77-15.2,15.38,1.79,17.28,15.3,16.34,21.5-1.13,7.46-7.2,21.44-23.36,25.53-13.35,3.37-27.26.69-27.26.69a78,78,0,0,0,20.13-.11c9.92-1.35,14.53-4.86,16.46-8.52s0-5-1.28-4.87c-1.91.22-3.89,1.39-7.74,1C178.19,53.68,176.62,41.57,177.62,35.17Z" transform="translate(-30.37 -19.54)"/><path class="cls-1" d="M172.45,189.86s-26.22-5.13-37.22-5.8c-11.63-.71-25.77-.47-38.06,2.28-51.31,11.46-64.87,64.93-31.62,86.38,24.8,16,71.57,7.21,93.17,24.79,19.45,15.82,15.64,52.57-17.52,72.18-21,12.39-55.21,12.56-76.24,2.21-8.82-4.34-32.68-20.87-32.33-48,.48-37.11,41.27-42.68,41.27-42.68S30.65,286,30.62,325.08c0,40.75,46.79,63.19,85.68,61.44,26.68-1.2,64.26-13.43,77.12-52.82,10.85-33.22.72-50.57-10.49-61.15-20.44-19.29-60.08-21.12-98.09-26-18.19-2.31-28.9-10-24.15-27.4,4.42-16.22,21.65-26.84,35.74-30.93,10.45-3,25.86-4.4,38.32-3.8C144.22,184.91,172.45,189.86,172.45,189.86Z" transform="translate(-30.37 -19.54)"/></svg>