<svg id="Layer_1" data-name="Layer 1" xmlns="http://www.w3.org/2000/svg" viewBox="0 0 836.75 368.8"><defs><style>.cls-1,.cls-2{fill:#231f20;stroke:#231f20;stroke-width:0.5px;}.cls-1{stroke-linejoin:round;}.cls-2{stroke-miterlimit:10;}</style></defs><title>Smilies-Black-2022</title><path class="cls-1" d="M855.8,269.8s-16-17.41-42-8.76C790,269,775.6,304.84,793.91,317.71c13.66,9.6,39.41,4.33,51.3,14.88,10.71,9.5,8.61,31.56-9.65,43.32-11.54,7.44-30.13,7.24-41.71,1-4.86-2.61-17-10.67-16.85-26.93.26-22.27,20.26-26.88,20.26-26.88s-21.63,4.13-21.65,27.56c0,24.46,24.81,36.66,46.22,35.61,14.69-.72,35.38-8.36,42.47-32,6-19.94.4-30.35-5.77-36.7-11.26-11.58-33.08-12.67-54-15.58-10-1.39-14.91-7.68-12.78-15.23,2.74-9.7,11.77-19.58,21.95-24C838.83,252,855.8,269.8,855.8,269.8Z" transform="translate(-30.37 -19.54)"/><path class="cls-1" d="M419.47,292.81s9.06-38,37.12-33.92c23.91,3.46,20.24,27.32,7.17,61.14-9,23.29-22.31,55.84-7.36,60,14.29,4,24.16-29.42,24.16-29.42s-9.87,44.26-39.61,35.55c-46.91-13.75,42.91-137-1.13-120.72C424.1,271.24,419.47,292.81,419.47,292.81Z" transform="translate(-30.37 -19.54)"/><path class="cls-1" d="M325.67,294s20.92-40.76,51.23-34.51c22.31,4.6,27,22,13.76,61-7.9,23.3-22.75,53-7.67,57.23,12.69,3.56,20.61-27,20.61-27s-8.53,43.42-34.93,35.55C326,373.52,400,273.35,367.67,265.5c-22.56-5.48-42,28.51-42,28.51" transform="translate(-30.37 -19.54)"/><path class="cls-1" d="M261.81,293.49S282.57,253.77,313,259c20.31,3.47,28.66,16,15.06,55.76-6.08,17.78-23.67,58.21-8.59,62.43,12.69,3.56,20.23-27,20.23-27s-8.53,43.42-34.93,35.55c-42.63-12.71,31.31-112.87-1-120.72-22.56-5.48-42,28.51-42,28.51" transform="translate(-30.37 -19.54)"/><path class="cls-1" d="M215.94,283.26s7.66-29.14,34.43-24c22.37,4.27,24.45,24.11,14,57.84-6.68,21.59-23,56.12-7.87,60.35,12.69,3.56,20.56-27,20.56-27s-8.53,43.42-34.93,35.55c-43.54-13,30.17-112.23-1-120.72C223.73,260.5,215.94,283.26,215.94,283.26Z" transform="translate(-30.37 -19.54)"/><path class="cls-1" d="M712.32,269.74c31.21-10.32,37,54.59-3.05,56.93-16.87,1-34-9.74-34-9.74s18.49,11.45,33.86,11.79c44.44,1,42-67.71,6-69.37-23.85-1.1-42.79,19.48-51.31,51.52,0,0-14.44,49.69,13,69.09,12.34,8.74,31.38,10.45,43.7-1.79C731.83,366.82,735.91,350,735.91,350s-5.33,18.2-17.63,26.4c-13,8.64-22.6,3.74-28-2.82-11.28-13.76-10-39.26-6.11-56.38C687.24,303.6,695.27,275.38,712.32,269.74Z" transform="translate(-30.37 -19.54)"/><path class="cls-1" d="M538.27,328.18c-7.89,24.56-17,48.5-4.22,51.59,14.34,3.47,22.78-28.91,22.78-28.91S548.81,394,520,387.4c-23.26-5.37-19.54-29.52-8.14-64.25,4.88-14.86,9.5-27.46,13.76-40.45,0,0,3.55-11.7,7.84-25,7.89-24.56,14.08-48.06.42-51.39-14.33-3.5-22.78,28.91-22.78,28.91s7.92-42.72,36.82-36.53c21.51,4.6,23.35,29.32,11.94,64.05Z" transform="translate(-30.37 -19.54)"/><path class="cls-2" d="M134.46,184.32c-38.57-3.56-67.3-33.85-64.18-67.64s36.92-58.3,75.49-54.73h0c-27.27-2.27-40.9,23.21-44.08,57.63-3.16,34.22-.52,61.74,32.77,64.74Z" transform="translate(-30.37 -19.54)"/><path class="cls-2" d="M133,184.18c38.57,3.56,72.36-20.94,75.49-54.73S182.87,65.38,144.3,61.81h0c27.23,2.76,36,30.31,32.77,64.74-3.16,34.22-10.8,60.79-44.08,57.63Z" transform="translate(-30.37 -19.54)"/><path class="cls-2" d="M177.62,35.17c1-6.56,7.79-16.83,21.77-15.2,15.38,1.79,17.28,15.3,16.34,21.5-1.13,7.46-7.2,21.44-23.36,25.53-13.35,3.37-27.26.69-27.26.69a78,78,0,0,0,20.13-.11c9.92-1.35,14.53-4.86,16.46-8.52s0-5-1.28-4.87c-1.91.22-3.89,1.39-7.74,1C178.19,53.68,176.62,41.57,177.62,35.17Z" transform="translate(-30.37 -19.54)"/><path class="cls-1" d="M172.45,189.86s-26.22-5.13-37.22-5.8c-11.63-.71-25.77-.47-38.06,2.28-51.31,11.46-64.87,64.93-31.62,86.38,24.8,16,71.57,7.21,93.17,24.79,19.45,15.82,15.64,52.57-17.52,72.18-21,12.39-55.21,12.56-76.24,2.21-8.82-4.34-32.68-20.87-32.33-48,.48-37.11,41.27-42.68,41.27-42.68S30.65,286,30.62,325.08c0,40.75,46.79,63.19,85.68,61.44,26.68-1.2,64.26-13.43,77.12-52.82,10.85-33.22.72-50.57-10.49-61.15-20.44-19.29-60.08-21.12-98.09-26-18.19-2.31-28.9-10-24.15-27.4,4.42-16.22,21.65-26.84,35.74-30.93,10.45-3,25.86-4.4,38.32-3.8C144.22,184.91,172.45,189.86,172.45,189.86Z" transform="translate(-30.37 -19.54)"/><path class="cls-1" d="M576,292.81s9.06-38,37.12-33.92c23.91,3.46,20.24,27.32,7.17,61.14-9,23.29-22.31,55.84-7.36,60,14.29,4,24.16-29.42,24.16-29.42s-9.87,44.26-39.61,35.55c-46.91-13.75,42.91-137-1.13-120.72C580.63,271.24,576,292.81,576,292.81Z" transform="translate(-30.37 -19.54)"/><ellipse class="cls-2" cx="439.16" cy="211.18" rx="13.44" ry="13.98"/><ellipse class="cls-2" cx="594.11" cy="211.73" rx="13.44" ry="13.98"/><path class="cls-1" d="M753.29,227.43c.89-4.51,5.89-11.42,15.57-9.9,10.66,1.68,11.61,11.08,10.78,15.35a21.94,21.94,0,0,1-17,17c-9.39,2-19-.3-19-.3a54.64,54.64,0,0,0,14,.5c6.94-.65,10.24-2.95,11.69-5.42s.11-3.47-.75-3.41c-1.33.1-2.75.85-5.42.46C753.17,240.26,752.42,231.83,753.29,227.43Z" transform="translate(-30.37 -19.54)"/></svg>